<svg width="10" height="13" viewBox="0 0 10 13" fill="none" xmlns="http://www.w3.org/2000/svg">
<path d="M8.0856 1.90463C7.44284 1.29673 6.63583 0.890809 5.76458 0.737159C4.89333 0.583508 3.99614 0.688886 3.18421 1.04023C2.37228 1.39158 1.68128 1.97345 1.19687 2.71373C0.712447 3.45402 0.455898 4.32017 0.459012 5.20486C0.459012 7.82563 2.73312 10.5157 4.08511 11.8816C4.2009 12.002 4.3398 12.0977 4.49349 12.1631C4.64717 12.2285 4.81248 12.2623 4.9795 12.2623C5.14653 12.2623 5.31183 12.2285 5.46551 12.1631C5.6192 12.0977 5.7581 12.002 5.87389 11.8816C7.26055 10.4949 9.49999 7.82563 9.49999 5.20486C9.50093 4.58751 9.37599 3.97646 9.13281 3.40902C8.88962 2.84159 8.5333 2.3297 8.0856 1.90463ZM5.0003 6.93124C4.65856 6.93262 4.32411 6.83253 4.03929 6.64367C3.75448 6.45481 3.53213 6.18567 3.4004 5.87034C3.26867 5.555 3.23349 5.20767 3.29932 4.87233C3.36514 4.53699 3.52902 4.22873 3.77018 3.9866C4.01134 3.74446 4.31894 3.57935 4.65401 3.51217C4.98908 3.445 5.33656 3.47878 5.65241 3.60924C5.96827 3.7397 6.23831 3.96097 6.42831 4.24502C6.61832 4.52907 6.71975 4.86312 6.71975 5.20486C6.71975 5.66153 6.53882 6.09959 6.21656 6.42315C5.8943 6.74671 5.45696 6.92941 5.0003 6.93124Z" fill="#7C8593"/>
</svg>
